# xmcd CD database file
#
# Track frame offsets:
#	150
#	19045
#	36526
#	51428
#	70838
#	93840
#	113451
#	130553
#	156069
#
# Disc length: 2585 seconds
#
# Revision: 0
# Processed by: cddbd v1.5.2PL0 Copyright (c) Steve Scherf et al.
# Submitted via: CDex 1.70beta2
#
DISCID=6b0a1709
DTITLE=Rod Piazza and The Mighty Flyer - From the Start to the Finnish
DYEAR=1900
DGENRE=Blues
TTITLE0=From The Start to the Finnish
TTITLE1=Where Was Your Love
TTITLE2=502
TTITLE3=Queenie
TTITLE4=Hard Work Boogie
TTITLE5=P.S. I Love You
TTITLE6=Somebody
TTITLE7=Sinister Woman
TTITLE8=Blues For Honey
EXTD=
EXTT0=
EXTT1=
EXTT2=
EXTT3=
EXTT4=
EXTT5=
EXTT6=
EXTT7=
EXTT8=
PLAYORDER=
